<mxfile host="app.diagrams.net" modified="2023-03-29T04:25:21.203Z" agent="Mozilla/5.0 (X11; Linux x86_64) AppleWebKit/537.36 (KHTML, like Gecko) Chrome/108.0.0.0 Safari/537.36" etag="nSuITnkRl38JbamsGbKr" version="21.1.1" type="github">
  <diagram id="R2lEEEUBdFMjLlhIrx00" name="Page-1">
    <mxGraphModel dx="991" dy="611" grid="1" gridSize="10" guides="1" tooltips="1" connect="1" arrows="1" fold="1" page="1" pageScale="1" pageWidth="850" pageHeight="1100" math="0" shadow="0" extFonts="Permanent Marker^https://fonts.googleapis.com/css?family=Permanent+Marker">
      <root>
        <mxCell id="0" />
        <mxCell id="1" parent="0" />
        <mxCell id="vPB9_eHQghtHpRKpBDYE-11" style="edgeStyle=orthogonalEdgeStyle;rounded=0;orthogonalLoop=1;jettySize=auto;html=1;exitX=1;exitY=0.5;exitDx=0;exitDy=0;entryX=0;entryY=0.5;entryDx=0;entryDy=0;" edge="1" parent="1" source="vPB9_eHQghtHpRKpBDYE-1" target="vPB9_eHQghtHpRKpBDYE-3">
          <mxGeometry relative="1" as="geometry" />
        </mxCell>
        <mxCell id="vPB9_eHQghtHpRKpBDYE-1" value="Customer" style="rounded=0;whiteSpace=wrap;html=1;" vertex="1" parent="1">
          <mxGeometry x="80" y="140" width="110" height="30" as="geometry" />
        </mxCell>
        <mxCell id="vPB9_eHQghtHpRKpBDYE-12" style="edgeStyle=orthogonalEdgeStyle;rounded=0;orthogonalLoop=1;jettySize=auto;html=1;exitX=0.5;exitY=0;exitDx=0;exitDy=0;entryX=0.5;entryY=1;entryDx=0;entryDy=0;" edge="1" parent="1" source="vPB9_eHQghtHpRKpBDYE-3" target="vPB9_eHQghtHpRKpBDYE-10">
          <mxGeometry relative="1" as="geometry" />
        </mxCell>
        <mxCell id="vPB9_eHQghtHpRKpBDYE-3" value="Log In" style="rhombus;whiteSpace=wrap;html=1;" vertex="1" parent="1">
          <mxGeometry x="260" y="130" width="60" height="50" as="geometry" />
        </mxCell>
        <mxCell id="vPB9_eHQghtHpRKpBDYE-6" value="Log In Id" style="ellipse;whiteSpace=wrap;html=1;" vertex="1" parent="1">
          <mxGeometry x="210" y="20" width="90" height="30" as="geometry" />
        </mxCell>
        <mxCell id="vPB9_eHQghtHpRKpBDYE-7" value="Password" style="ellipse;whiteSpace=wrap;html=1;" vertex="1" parent="1">
          <mxGeometry x="310" y="20" width="90" height="30" as="geometry" />
        </mxCell>
        <mxCell id="vPB9_eHQghtHpRKpBDYE-13" style="edgeStyle=orthogonalEdgeStyle;rounded=0;orthogonalLoop=1;jettySize=auto;html=1;exitX=0.25;exitY=0;exitDx=0;exitDy=0;entryX=0.753;entryY=0.92;entryDx=0;entryDy=0;entryPerimeter=0;" edge="1" parent="1" source="vPB9_eHQghtHpRKpBDYE-10" target="vPB9_eHQghtHpRKpBDYE-6">
          <mxGeometry relative="1" as="geometry" />
        </mxCell>
        <mxCell id="vPB9_eHQghtHpRKpBDYE-14" style="edgeStyle=orthogonalEdgeStyle;rounded=0;orthogonalLoop=1;jettySize=auto;html=1;exitX=0.75;exitY=0;exitDx=0;exitDy=0;entryX=0.256;entryY=1;entryDx=0;entryDy=0;entryPerimeter=0;" edge="1" parent="1" source="vPB9_eHQghtHpRKpBDYE-10" target="vPB9_eHQghtHpRKpBDYE-7">
          <mxGeometry relative="1" as="geometry" />
        </mxCell>
        <mxCell id="vPB9_eHQghtHpRKpBDYE-10" value="Authentication" style="rounded=0;whiteSpace=wrap;html=1;" vertex="1" parent="1">
          <mxGeometry x="265" y="80" width="90" height="30" as="geometry" />
        </mxCell>
      </root>
    </mxGraphModel>
  </diagram>
</mxfile>
